<svg width="128" height="128" viewBox="0 0 128 128" fill="none" xmlns="http://www.w3.org/2000/svg">
<path fill-rule="evenodd" clip-rule="evenodd" d="M37.2746 48.7443C39.0906 36.4417 49.6927 27 62.5 27C75.3073 27 85.9094 36.4417 87.7254 48.7443C87.9017 49.1263 88 49.5517 88 50V52.5V54V67C88 68.6569 86.6569 70 85 70C83.3431 70 82 68.6569 82 67V54V53.5C82 50.0848 81.1221 46.8747 79.5795 44.083C76.2852 39.9449 71.2756 42.1795 69 44L63 48L56 44V44C53.7244 42.1795 48.7148 39.9448 45.4205 44.083C43.8779 46.8747 43 50.0848 43 53.5V54V67C43 68.6569 41.6569 70 40 70C38.3431 70 37 68.6569 37 67V54V52.5V50C37 49.5517 37.0983 49.1263 37.2746 48.7443Z" fill="#232223"/>
</svg>
