<svg width="128" height="128" viewBox="0 0 128 128" fill="none" xmlns="http://www.w3.org/2000/svg">
<path d="M56 78H69V84.5C69 88.0899 66.0899 91 62.5 91C58.9101 91 56 88.0899 56 84.5V78Z" fill="#931935"/>
<path fill-rule="evenodd" clip-rule="evenodd" d="M69 83.6736V84.5C69 88.0899 66.0898 91 62.5 91C61.2114 91 60.0103 90.625 59 89.9782C59.0118 86.1222 62.1413 83 66 83C67.0736 83 68.0907 83.2417 69 83.6736Z" fill="#F2265B"/>
<path d="M57 78H68V80C68 81.1046 67.1046 82 66 82H59C57.8954 82 57 81.1046 57 80V78Z" fill="white"/>
</svg>
