<svg width="128" height="128" viewBox="0 0 128 128" fill="none" xmlns="http://www.w3.org/2000/svg">
<path d="M56 84.5C56 80.9101 58.9101 78 62.5 78C66.0899 78 69 80.9101 69 84.5C69 88.0899 66.0899 91 62.5 91C58.9101 91 56 88.0899 56 84.5Z" fill="#931935"/>
<path fill-rule="evenodd" clip-rule="evenodd" d="M69 83.6736V84.5C69 88.0899 66.0899 91 62.5 91C61.2114 91 60.0104 90.625 59.0001 89.9782C59.0118 86.1222 62.1413 83 66 83C67.0736 83 68.0908 83.2417 69 83.6736Z" fill="#F2265B"/>
<path fill-rule="evenodd" clip-rule="evenodd" d="M57.1621 80.79C58.3364 79.1036 60.2893 78 62.5 78C64.7107 78 66.6637 79.1036 67.8379 80.79C67.5316 81.5017 66.824 82 66 82H59C58.176 82 57.4684 81.5017 57.1621 80.79Z" fill="white"/>
</svg>
