<svg width="128" height="128" viewBox="0 0 128 128" fill="none" xmlns="http://www.w3.org/2000/svg">
<path fill-rule="evenodd" clip-rule="evenodd" d="M51.5 61C49.567 61 48 62.567 48 64.5C48 64.8475 48.0506 65.1831 48.1449 65.5C48.5752 64.0543 49.9145 63 51.5 63C53.0855 63 54.4248 64.0543 54.8551 65.5C54.9494 65.1831 55 64.8475 55 64.5C55 62.567 53.433 61 51.5 61Z" fill="black"/>
<path fill-rule="evenodd" clip-rule="evenodd" d="M73.5 61C71.567 61 70 62.567 70 64.5C70 64.8475 70.0506 65.1831 70.1449 65.5C70.5752 64.0543 71.9145 63 73.5 63C75.0855 63 76.4248 64.0543 76.8551 65.5C76.9494 65.1831 77 64.8475 77 64.5C77 62.567 75.433 61 73.5 61Z" fill="black"/>
</svg>
