<svg width="128" height="128" viewBox="0 0 128 128" fill="none" xmlns="http://www.w3.org/2000/svg">
<path d="M60.5 64.5C60.5 64.5 61.3954 62.5 62.5 62.5C63.6046 62.5 64.5 64.5 64.5 64.5" stroke="black"/>
<rect x="44" y="56" width="17" height="17" rx="8.5" fill="black"/>
<rect x="45" y="57" width="15" height="15" rx="7.5" fill="white"/>
<path d="M52 58.5C49.1249 58.9 47.125 61.0999 47 64C46.8686 67.0473 48.9619 69.7298 52 70C55.1661 70.2815 58.7614 67.5861 58 64.5C57.4291 62.1859 55.3168 59.9402 53 60.5C51.3895 60.8892 49.6751 62.3753 50 64C50.2166 65.0831 50.899 66.0893 52 66C52.7017 65.9431 53.5 65.5 53.5 65.5" stroke="black" stroke-opacity="0.35"/>
<rect x="64" y="56" width="17" height="17" rx="8.5" fill="black"/>
<rect x="65" y="57" width="15" height="15" rx="7.5" fill="white"/>
<path d="M72 58.5C69.1249 58.9 67.125 61.0999 67 64C66.8686 67.0473 68.9619 69.7298 72 70C75.1661 70.2815 78.7614 67.5861 78 64.5C77.4291 62.1859 75.3168 59.9402 73 60.5C71.3895 60.8892 69.6751 62.3753 70 64C70.2166 65.0831 70.899 66.0893 72 66C72.7017 65.9431 73.5 65.5 73.5 65.5" stroke="black" stroke-opacity="0.35"/>
<path d="M44.5 64.5L38 60.5" stroke="black"/>
<path d="M80.5 65.5L87 60.5" stroke="black"/>
</svg>
