<svg width="128" height="128" viewBox="0 0 128 128" fill="none" xmlns="http://www.w3.org/2000/svg">
<path d="M26 50.5009L32 41.5009L33 39.5009L38 46.0009V71.0009C37.3333 71.1676 35.2 71.6009 32 72.0009C28.8 72.4009 26.6667 70.1676 26 69.0009V50.5009Z" fill="#0076B9"/>
<path d="M100 50.5009L94 41.5009L93 39.5009L88 46.0009V71.0009C88.6667 71.1676 90.8 71.6009 94 72.0009C97.2 72.4009 99.3333 70.1676 100 69.0009V50.5009Z" fill="#0076B9"/>
<path fill-rule="evenodd" clip-rule="evenodd" d="M37.6154 45.5009L38 46.0009V71.0009C37.4054 71.1496 35.6441 71.5103 33 71.8704V45.5009H37.6154Z" fill="#7E290E"/>
<path fill-rule="evenodd" clip-rule="evenodd" d="M88.3846 45.5009L88 46.0009V71.0009C88.5946 71.1496 90.3559 71.5103 93 71.8704V45.5009H88.3846Z" fill="#7E290E"/>
<path fill-rule="evenodd" clip-rule="evenodd" d="M62.5 13.0011C53.8582 13.0945 42.314 19.4599 37.8606 22.1201C34.438 23.3941 32 26.691 32 30.5574V44.5009C32 45.9249 32.3307 47.2717 32.9195 48.4686L39.5 46.0009L56.5 43.0009L73.5 44.0009L88 47.5009L92.904 48.8087C93.6028 47.5292 94 46.0615 94 44.5009V30.5574C94 26.3722 91.1434 22.8543 87.2736 21.847C81.9064 18.6925 70.9035 12.9102 62.5 13.0011Z" fill="#0076B9"/>
<path d="M63 37.5026C51.6286 37.3666 35 45.5026 35 45.5026L45.5 44.5026L66.5 43.5026L92 47.0026C92 47.0026 74.9165 37.6451 63 37.5026Z" fill="#1BA4F1"/>
<path d="M32 48.5026C32 48.5026 50.1227 43.5383 62 43.5026C74.68 43.4646 94 49.0026 94 49.0026" stroke="#04507B" stroke-width="4" stroke-linecap="round"/>
</svg>
