<svg width="128" height="128" viewBox="0 0 128 128" fill="none" xmlns="http://www.w3.org/2000/svg">
<path d="M57.4615 18C56.6922 19.3333 52.9383 22.7 44.0766 25.5L44.5381 26.5C57.3076 26.5 84.8774 25.9 81.9235 25.5C78.9696 25.1 70.5386 20.5 68.0771 18H57.4615Z" fill="#B31C1C"/>
<path fill-rule="evenodd" clip-rule="evenodd" d="M33.9225 28.5C32.5379 31 29.7686 49 31.6148 62.5C33.1859 73.989 42.2304 88 44.0765 89C45.9227 90 47.6008 89.6025 48.692 88C49.6548 86.5861 48.6924 84.5009 47.7695 82.5013L47.7689 82.5C46.889 80.5936 46.1019 79.1281 45.3471 77.7227C44.1535 75.5003 43.0405 73.4282 41.7688 70C39.617 64.1995 38.5379 58.5 39.461 52.5C40.1367 50.67 41.307 50.7154 45.3253 50.8712C46.7965 50.9282 48.6495 51 50.9997 51C55.7172 51 62.9999 51.5 62.9999 51.5V25.5C62.9999 25.5 40.3842 24.5001 36.6918 26C35.4609 26.5 34.6468 27.1923 33.9225 28.5ZM92.0775 28.5C93.4621 31 96.2314 49 94.3852 62.5C92.8141 73.989 83.7696 88 81.9235 89C80.0773 90 78.3992 89.6025 77.308 88C76.3452 86.5861 77.3076 84.5009 78.2305 82.5013L78.2311 82.5C79.111 80.5936 79.8981 79.1281 80.6529 77.7227C81.8466 75.5003 82.9595 73.4282 84.2312 70C86.383 64.1995 87.4621 58.5 86.539 52.5C85.8633 50.67 84.693 50.7154 80.6747 50.8712C79.2035 50.9282 77.3505 51 75.0003 51C70.2828 51 62.9999 51.5 62.9999 51.5V25.5C62.9999 25.5 85.6158 24.5001 89.3082 26C90.5391 26.5 91.3533 27.1923 92.0775 28.5Z" fill="#EE3E17"/>
</svg>
