<svg width="128" height="128" viewBox="0 0 128 128" fill="none" xmlns="http://www.w3.org/2000/svg">
<path fill-rule="evenodd" clip-rule="evenodd" d="M61 21C41.67 21 26 36.67 26 56H100C100 36.67 84.33 21 65 21H61Z" fill="url(#paint0_linear_6_62)"/>
<path fill-rule="evenodd" clip-rule="evenodd" d="M62.9999 52.5H33.146L27.9518 55.0971L29.0149 75.828L40.9878 105.5H61.9999H64.5001H85.5122L97.4851 75.828L98.5482 55.0971L93.354 52.5H63.5001H62.9999ZM62.9999 55.5H33.8542L31.0483 56.9029L31.9852 75.172L32.8389 77.2876L39.6973 67H61.5H62H63H63.5H64.5H65H86.8027L93.6611 77.2876L94.5148 75.172L95.4517 56.9029L92.6458 55.5H63.5001H62.9999ZM62 88.5H61.5H52.2709L53.8941 102.5H61.9999H64.5001H72.6059L74.2291 88.5H65H64.5H63.5H63H62ZM61.5 70V85.5H51.9231L50.126 70H61.5ZM48.903 85.5L47.1059 70H41.3028L34.1983 80.6567L36.1527 85.5H48.903ZM37.3632 88.5L43.0123 102.5H50.874L49.2508 88.5H37.3632ZM65 70V85.5H74.5769L76.374 70H65ZM77.597 85.5L79.3941 70H85.1972L92.3017 80.6567L90.3473 85.5H77.597ZM89.1368 88.5L83.4877 102.5H75.626L77.2492 88.5H89.1368Z" fill="#4D3127"/>
<defs>
<linearGradient id="paint0_linear_6_62" x1="63" y1="21" x2="63" y2="56" gradientUnits="userSpaceOnUse">
<stop offset="0.772879" stop-color="#D9D9D9"/>
<stop offset="0.772879" stop-color="#FF8750"/>
</linearGradient>
</defs>
</svg>
