<svg width="128" height="128" viewBox="0 0 128 128" fill="none" xmlns="http://www.w3.org/2000/svg">
<path fill-rule="evenodd" clip-rule="evenodd" d="M57 11C55.3431 11 54 12.3431 54 14V28.451C45.2341 31.5493 38.668 39.3047 37.2746 48.7443C37.0983 49.1263 37 49.5517 37 50V52.5V54V67C37 68.6569 38.3431 70 40 70C41.6569 70 43 68.6569 43 67V54V53.5C43 50.0848 43.8779 46.8747 45.4204 44.083C48.7148 39.9449 53.7244 42.1795 56 44L63 48L69 44C71.2756 42.1795 76.2852 39.9449 79.5796 44.083C81.1221 46.8747 82 50.0848 82 53.5V54V67C82 68.6569 83.3431 70 85 70C86.6569 70 88 68.6569 88 67V54V52.5V50C88 49.5517 87.9017 49.1263 87.7254 48.7443C86.332 39.3047 79.7659 31.5493 71 28.451V14C71 12.3431 69.6569 11 68 11H57ZM68.8786 43.8693C68.9144 43.8584 68.9498 43.8468 68.985 43.8346L69 44L68.8786 43.8693ZM56.1214 43.8693L56 44L56.015 43.8346C56.0502 43.8468 56.0856 43.8584 56.1214 43.8693Z" fill="#232223"/>
</svg>
